# xmcd
#
# Track frame offsets: 
#        150
#        13125
#        24630
#        38042
#        51727
#        64750
#        75500
#        87467
#        100427
#        113230
#        125097
#        138750
#        150785
#        162362
#        175442
#        188987
#        200445
#        212557
#        223965
#        235317
#
# Disc length: 3297 seconds
#
# Revision: 10
# Processed by: cddbd v1.5.2PL0 Copyright (c) Steve Scherf et al.
# Submitted via: ExactAudioCopyFreeDBPlugin 1.0
#
DISCID=220cdf14
DTITLE=Robert Johnson - The Complete Recordings [CD1]
DYEAR=1936
DGENRE=Blues
TTITLE0=Kindhearted Woman Blues
TTITLE1=Kindhearted Woman Blues
TTITLE2=I believe I'll dust my broom
TTITLE3=Sweet Home Chicago
TTITLE4=Rambling on My Mind
TTITLE5=Rambling on My Mind
TTITLE6=When You Got a Good Friend
TTITLE7=When You Got a Good Friend
TTITLE8=Come on in My Kitchen
TTITLE9=Come on in My Kitchen
TTITLE10=Terraplane Blues
TTITLE11=Phonograph Blues
TTITLE12=Phonograph Blues
TTITLE13=32-20 Blues
TTITLE14=They're Red Hot
TTITLE15=Dead Shrimp Blues
TTITLE16=Cross Road Blues
TTITLE17=Cross Road Blues
TTITLE18=Walking Blues
TTITLE19=Last Fair Deal Gone Down
EXTD=Disk 1 of a 2 Disk set featuring every recording ever made by Blu
EXTD=es artist Robert Johnson.\n\n YEAR: 1936
EXTT0=
EXTT1=
EXTT2=
EXTT3=
EXTT4=
EXTT5=
EXTT6=
EXTT7=
EXTT8=
EXTT9=
EXTT10=
EXTT11=
EXTT12=
EXTT13=
EXTT14=
EXTT15=
EXTT16=
EXTT17=
EXTT18=
EXTT19=
PLAYORDER=
